<svg xmlns="http://www.w3.org/2000/svg" viewBox="0 0 1040 280" width="1040" height="280">
  <defs>
    <linearGradient id="g1" x1="0%" y1="0%" x2="100%" y2="100%">
      <stop offset="0%" stop-color="#6DCFB0"/>
      <stop offset="50%" stop-color="#3AAECC"/>
      <stop offset="100%" stop-color="#1A7FC1"/>
    </linearGradient>
    <linearGradient id="g2" x1="100%" y1="0%" x2="0%" y2="100%">
      <stop offset="0%" stop-color="#6DCFB0"/>
      <stop offset="50%" stop-color="#3AAECC"/>
      <stop offset="100%" stop-color="#1A7FC1"/>
    </linearGradient>
    <linearGradient id="glow" x1="0%" y1="100%" x2="100%" y2="0%">
      <stop offset="0%" stop-color="#B8DDD8"/>
      <stop offset="100%" stop-color="#3AAECC"/>
    </linearGradient>
    <linearGradient id="fmGrad" x1="0%" y1="0%" x2="100%" y2="0%">
      <stop offset="0%" stop-color="#6DCFB0"/>
      <stop offset="50%" stop-color="#3AAECC"/>
      <stop offset="100%" stop-color="#1A7FC1"/>
    </linearGradient>
  </defs>

  <rect width="1040" height="280" fill="#FFFFFF"/>

  <!-- Icon centred at 140,140 -->
  <g transform="translate(140,140)">
    <path opacity="0.15" fill="url(#glow)" d="M0,-80 C4,-58 58,-4 80,0 C58,4 4,58 0,80 C-4,58 -58,4 -80,0 C-58,-4 -4,-58 0,-80 Z"/>
    <path opacity="0.15" fill="url(#glow)" d="M0,-80 C4,-58 58,-4 80,0 C58,4 4,58 0,80 C-4,58 -58,4 -80,0 C-58,-4 -4,-58 0,-80 Z" transform="rotate(45)"/>
    <path opacity="0.40" fill="url(#g2)"   d="M0,-64 C3,-46 46,-3 64,0 C46,3 3,46 0,64 C-3,46 -46,3 -64,0 C-46,-3 -3,-46 0,-64 Z"/>
    <path opacity="0.40" fill="url(#g2)"   d="M0,-64 C3,-46 46,-3 64,0 C46,3 3,46 0,64 C-3,46 -46,3 -64,0 C-46,-3 -3,-46 0,-64 Z" transform="rotate(45)"/>
    <path fill="url(#g1)" d="M0,-46 C3,-33 33,-3 46,0 C33,3 3,33 0,46 C-3,33 -33,3 -46,0 C-33,-3 -3,-33 0,-46 Z"/>
    <path fill="url(#g2)" d="M0,-46 C3,-33 33,-3 46,0 C33,3 3,33 0,46 C-3,33 -33,3 -46,0 C-33,-3 -3,-33 0,-46 Z" transform="rotate(45)"/>
    <circle cx="0" cy="0" r="22" fill="#FFFFFF"/>
    <circle cx="0" cy="0" r="14" fill="url(#g1)" opacity="0.85"/>
  </g>

  <!-- Wordmark -->
  <text x="268" y="162" font-family="Arial, sans-serif" font-size="88" font-weight="700" letter-spacing="-2" fill="#1E2D4E">Serviq</text>
  <text x="268" y="162" font-family="Arial, sans-serif" font-size="88" font-weight="700" letter-spacing="-2">
    <tspan fill="none">Serviq</tspan><tspan fill="url(#fmGrad)">FM</tspan>
  </text>

  <!-- EN tagline -->
  <text x="270" y="196" font-family="Arial, sans-serif" font-size="18" font-weight="400" fill="#A0B0BF" letter-spacing="4">FACILITY MANAGEMENT</text>

  <!-- Divider -->
  <line x1="270" y1="210" x2="1020" y2="210" stroke="#E8ECF0" stroke-width="1"/>

  <!-- AR tagline placeholder — set in Figma with Readex Pro for production -->
  <text x="1018" y="234" font-family="Arial, sans-serif" font-size="18" font-weight="400"
        fill="#A0B0BF" text-anchor="end" direction="rtl">&#x645;&#x646;&#x635;&#x629; &#x625;&#x62f;&#x627;&#x631;&#x629; &#x627;&#x644;&#x645;&#x646;&#x634;&#x622;&#x62a;</text>
</svg>