<?xml version="1.0" encoding="utf-8"?>
<!-- Generator: Adobe Illustrator 27.6.1, SVG Export Plug-In . SVG Version: 6.00 Build 0)  -->
<svg version="1.1" id="Layer_1" xmlns="http://www.w3.org/2000/svg" xmlns:xlink="http://www.w3.org/1999/xlink" x="0px" y="0px"
	 viewBox="0 0 1040 280" style="enable-background:new 0 0 1040 280;" xml:space="preserve">
<style type="text/css">
	.st0{opacity:0.15;fill:url(#SVGID_1_);enable-background:new    ;}
	.st1{opacity:0.15;fill:url(#SVGID_00000107572323141165896630000001632200425288647338_);enable-background:new    ;}
	.st2{opacity:0.4;fill:url(#SVGID_00000078743229105411314470000013872318804481788566_);enable-background:new    ;}
	.st3{opacity:0.4;fill:url(#SVGID_00000029765308689115989730000017120290278101658504_);enable-background:new    ;}
	.st4{fill:url(#SVGID_00000109709725305940442270000004714332079311376311_);}
	.st5{fill:url(#SVGID_00000131333302278479256360000014305645165437584299_);}
	.st6{fill:#FFFFFF;}
	.st7{opacity:0.85;fill:url(#SVGID_00000145016003701317710240000011006325874149235841_);enable-background:new    ;}
	.st8{fill:#1E2D4E;}
	.st9{font-family:'Arial-BoldMT';}
	.st10{font-size:88px;}
	.st11{fill:#A0B0BF;}
	.st12{font-family:'ArialMT';}
	.st13{font-size:18px;}
	.st14{letter-spacing:2;}
	.st15{fill:none;stroke:#E8ECF0;}
</style>
<g transform="translate(140,140)">
	
		<linearGradient id="SVGID_1_" gradientUnits="userSpaceOnUse" x1="161.225" y1="4.5125" x2="162.225" y2="3.5125" gradientTransform="matrix(160 0 0 160 -25876 -641.998)">
		<stop  offset="0" style="stop-color:#B8DDD8"/>
		<stop  offset="1" style="stop-color:#3AAECC"/>
	</linearGradient>
	<path class="st0" d="M0-80C4-58,58-4,80,0C58,4,4,58,0,80C-4,58-58,4-80,0C-58-4-4-58,0-80z"/>
	
		<linearGradient id="SVGID_00000137840015499373010970000014563268984482507918_" gradientUnits="userSpaceOnUse" x1="164.5213" y1="5.4457" x2="165.521" y2="4.4461" gradientTransform="matrix(113.1371 113.1371 -113.1371 113.1371 -18110.4746 -19229.627)">
		<stop  offset="0" style="stop-color:#B8DDD8"/>
		<stop  offset="1" style="stop-color:#3AAECC"/>
	</linearGradient>
	<path style="opacity:0.15;fill:url(#SVGID_00000137840015499373010970000014563268984482507918_);enable-background:new    ;" d="
		M56.6-56.6c-12.7,18.4-12.7,94.8,0,113.1c-18.4-12.7-94.8-12.7-113.1,0c12.7-18.4,12.7-94.8,0-113.1
		C-38.2-43.8,38.2-43.8,56.6-56.6z"/>
	
		<linearGradient id="SVGID_00000138553759501622931070000001436700534512360089_" gradientUnits="userSpaceOnUse" x1="161.5312" y1="4.3907" x2="160.5312" y2="5.3907" gradientTransform="matrix(128 0 0 128 -20612 -626)">
		<stop  offset="0" style="stop-color:#6DCFB0"/>
		<stop  offset="0.5" style="stop-color:#3AAECC"/>
		<stop  offset="1" style="stop-color:#1A7FC1"/>
	</linearGradient>
	<path style="opacity:0.4;fill:url(#SVGID_00000138553759501622931070000001436700534512360089_);enable-background:new    ;" d="
		M0-64C3-46,46-3,64,0C46,3,3,46,0,64C-3,46-46,3-64,0C-46-3-3-46,0-64z"/>
	
		<linearGradient id="SVGID_00000050653237899818338090000016701474898701103029_" gradientUnits="userSpaceOnUse" x1="165.6516" y1="5.5572" x2="164.6517" y2="6.5571" gradientTransform="matrix(90.5097 90.5097 -90.5097 90.5097 -14399.5742 -15496.1094)">
		<stop  offset="0" style="stop-color:#6DCFB0"/>
		<stop  offset="0.5" style="stop-color:#3AAECC"/>
		<stop  offset="1" style="stop-color:#1A7FC1"/>
	</linearGradient>
	<path style="opacity:0.4;fill:url(#SVGID_00000050653237899818338090000016701474898701103029_);enable-background:new    ;" d="
		M45.3-45.3c-10.6,14.8-10.6,75.7,0,90.5c-14.8-10.6-75.7-10.6-90.5,0c10.6-14.8,10.6-75.7,0-90.5C-30.4-34.6,30.4-34.6,45.3-45.3z"
		/>
	
		<linearGradient id="SVGID_00000166647685812453965680000002469026863816781242_" gradientUnits="userSpaceOnUse" x1="159.1739" y1="6.1087" x2="160.1739" y2="7.1087" gradientTransform="matrix(92 0 0 92 -14690 -608.0012)">
		<stop  offset="0" style="stop-color:#6DCFB0"/>
		<stop  offset="0.5" style="stop-color:#3AAECC"/>
		<stop  offset="1" style="stop-color:#1A7FC1"/>
	</linearGradient>
	<path style="fill:url(#SVGID_00000166647685812453965680000002469026863816781242_);" d="M0-46C3-33,33-3,46,0C33,3,3,33,0,46
		C-3,33-33,3-46,0C-33-3-3-33,0-46z"/>
	
		<linearGradient id="SVGID_00000045608770876182859360000016165886147913536130_" gradientUnits="userSpaceOnUse" x1="165.9073" y1="7.7324" x2="164.9073" y2="8.7324" gradientTransform="matrix(65.0538 65.0538 -65.0538 65.0538 -10224.834 -11295.8701)">
		<stop  offset="0" style="stop-color:#6DCFB0"/>
		<stop  offset="0.5" style="stop-color:#3AAECC"/>
		<stop  offset="1" style="stop-color:#1A7FC1"/>
	</linearGradient>
	<path style="fill:url(#SVGID_00000045608770876182859360000016165886147913536130_);" d="M32.5-32.5c-7.1,11.3-7.1,53.7,0,65.1
		c-11.3-7.1-53.7-7.1-65.1,0c7.1-11.3,7.1-53.7,0-65.1C-21.2-25.5,21.2-25.5,32.5-32.5z"/>
	<circle class="st6" cx="0" cy="0" r="22"/>
	
		<linearGradient id="SVGID_00000160905051390457000520000000803544367527227067_" gradientUnits="userSpaceOnUse" x1="148.1429" y1="20.0714" x2="149.1429" y2="21.0714" gradientTransform="matrix(28 0 0 28 -4162 -576.0002)">
		<stop  offset="0" style="stop-color:#6DCFB0"/>
		<stop  offset="0.5" style="stop-color:#3AAECC"/>
		<stop  offset="1" style="stop-color:#1A7FC1"/>
	</linearGradient>
	
		<circle style="opacity:0.85;fill:url(#SVGID_00000160905051390457000520000000803544367527227067_);enable-background:new    ;" cx="0" cy="0" r="14"/>
</g>
<text transform="matrix(1 0 0 1 268 162)" class="st8 st9 st10">Serviq</text>
<text transform="matrix(1 0 0 1 525.0273 162)" class="st9 st10">FM</text>
<text transform="matrix(1 0 0 1 270 196)" class="st11 st12 st13 st14">FACILITY MANAGEMENT</text>
<line class="st15" x1="270" y1="210" x2="1020" y2="210"/>
<text transform="matrix(1 0 0 1 880.46 234)" class="st11 st12 st13">قفارملا ةرادإ تامدخ</text>
</svg>
